<svg xmlns="http://www.w3.org/2000/svg" viewBox="0 0 100 100">
  <defs>
    <linearGradient id="grad" x1="0%" y1="0%" x2="100%" y2="100%">
      <stop offset="0%" style="stop-color:#1976d2;stop-opacity:1" />
      <stop offset="100%" style="stop-color:#42a5f5;stop-opacity:1" />
    </linearGradient>
  </defs>
  <!-- Fundo arredondado -->
  <rect x="10" y="10" width="80" height="80" rx="15" fill="url(#grad)"/>
  <!-- Símbolo de cifrão/dinheiro -->
  <path d="M 50 25 L 45 25 L 45 35 Q 40 35 40 40 Q 40 45 45 45 L 55 45 Q 60 45 60 50 Q 60 55 55 55 L 45 55 L 45 65 L 55 65 L 55 75 L 50 75 L 50 65 L 55 65 L 55 55 Q 60 55 60 50 Q 60 45 55 45 L 45 45 Q 40 45 40 40 Q 40 35 45 35 L 55 35 L 55 25 Z" 
        fill="white" stroke="white" stroke-width="2" stroke-linejoin="round"/>
  <!-- Linha vertical central -->
  <line x1="50" y1="25" x2="50" y2="75" stroke="white" stroke-width="3"/>
</svg>
